<mxfile host="app.diagrams.net" modified="2023-12-08T06:39:46.091Z" agent="Mozilla/5.0 (Macintosh; Intel Mac OS X 10_15_7) AppleWebKit/537.36 (KHTML, like Gecko) Chrome/119.0.0.0 Safari/537.36" version="22.1.7" etag="DPm1CEwYWI70Gpf-5puD" type="github">
  <diagram name="第 1 页" id="UOg6wx9SXmByAXnTMmoA">
    <mxGraphModel>
      <root>
        <mxCell id="0" />
        <mxCell id="1" parent="0" />
      </root>
    </mxGraphModel>
  </diagram>
</mxfile>
